HIERARCHY
ROOT SimulationBone
{
	OFFSET 0.000000 0.000000 0.000000
	CHANNELS 6 Xposition Yposition Zposition Zrotation Yrotation Xrotation 
	JOINT Hips
	{
		OFFSET 0.000000 0.000000 0.000000
		CHANNELS 6 Xposition Yposition Zposition Zrotation Yrotation Xrotation 
		JOINT LeftUpLeg
		{
			OFFSET 0.103458 1.857820 10.548502
			CHANNELS 3 Zrotation Yrotation Xrotation
			JOINT LeftLeg
			{
				OFFSET 43.500000 -0.000023 -0.000011
				CHANNELS 3 Zrotation Yrotation Xrotation
				JOINT LeftFoot
				{
					OFFSET 42.372192 0.000038 0.000002
					CHANNELS 3 Zrotation Yrotation Xrotation
					JOINT LeftToe
					{
						OFFSET 17.299992 -0.000004 0.000006
						CHANNELS 3 Zrotation Yrotation Xrotation
						End Site
						{
							OFFSET 0.000000 0.000000 0.000000
						}
					}
				}
			}
		}
		JOINT RightUpLeg
		{
			OFFSET 0.103461 1.857814 -10.548508
			CHANNELS 3 Zrotation Yrotation Xrotation
			JOINT RightLeg
			{
				OFFSET 43.500042 -0.000015 0.000008
				CHANNELS 3 Zrotation Yrotation Xrotation
				JOINT RightFoot
				{
					OFFSET 42.372253 0.000008 0.000006
					CHANNELS 3 Zrotation Yrotation Xrotation
					JOINT RightToe
					{
						OFFSET 17.299973 -0.000014 0.000011
						CHANNELS 3 Zrotation Yrotation Xrotation
						End Site
						{
							OFFSET 0.000000 0.000000 0.000000
						}
					}
				}
			}
		}
		JOINT Spine
		{
			OFFSET 6.901966 -2.603737 -0.000007
			CHANNELS 3 Zrotation Yrotation Xrotation
			JOINT Spine1
			{
				OFFSET 12.588102 0.000017 0.000001
				CHANNELS 3 Zrotation Yrotation Xrotation
				JOINT Spine2
				{
					OFFSET 12.343197 -0.000013 0.000000
					CHANNELS 3 Zrotation Yrotation Xrotation
					JOINT Neck
					{
						OFFSET 25.832905 -0.000008 0.000000
						CHANNELS 3 Zrotation Yrotation Xrotation
						JOINT Head
						{
							OFFSET 11.766610 0.000009 -0.000002
							CHANNELS 3 Zrotation Yrotation Xrotation
							End Site
							{
								OFFSET 0.000000 0.000000 0.000000
							}
						}
					}
					JOINT LeftShoulder
					{
						OFFSET 19.745903 -1.480377 6.000115
						CHANNELS 3 Zrotation Yrotation Xrotation
						JOINT LeftArm
						{
							OFFSET 11.284125 -0.000014 -0.000024
							CHANNELS 3 Zrotation Yrotation Xrotation
							JOINT LeftForeArm
							{
								OFFSET 33.000046 -0.000012 0.000029
								CHANNELS 3 Zrotation Yrotation Xrotation
								JOINT LeftHand
								{
									OFFSET 25.199989 0.000034 0.000012
									CHANNELS 3 Zrotation Yrotation Xrotation
									End Site
									{
										OFFSET 0.000000 0.000000 0.000000
									}
								}
							}
						}
					}
					JOINT RightShoulder
					{
						OFFSET 19.746098 -1.480362 -6.000071
						CHANNELS 3 Zrotation Yrotation Xrotation
						JOINT RightArm
						{
							OFFSET 11.284137 -0.000006 -0.000008
							CHANNELS 3 Zrotation Yrotation Xrotation
							JOINT RightForeArm
							{
								OFFSET 33.000095 0.000017 0.000000
								CHANNELS 3 Zrotation Yrotation Xrotation
								JOINT RightHand
								{
									OFFSET 25.199778 0.000144 0.000423
									CHANNELS 3 Zrotation Yrotation Xrotation
									End Site
									{
										OFFSET 0.000000 0.000000 0.000000
									}
								}
							}
						}
					}
				}
			}
		}
	}
}
MOTION
Frames: 7
Frame Time: 0.016667
-121.856303 0.000000 -210.344407 180.000000 -74.949761 180.000000 -15.536893 81.838760 2.992853 69.394582 1.243748 -179.204604 121.973722 6.521402 -178.098617 -85.159904 -0.967943 -8.889140 79.456054 5.149159 -4.640238 21.454553 0.003089 -0.000001 179.627527 15.972401 177.522764 -20.009458 3.289110 16.366342 77.260879 -5.569826 23.997465 21.454557 -0.003097 -0.000020 10.230541 -1.614879 1.288347 10.417198 -3.339167 2.426913 10.098839 -3.324320 2.447048 -29.890304 -6.101659 -1.250349 -15.476001 4.100834 -5.357713 178.685180 -78.567503 -0.199276 42.677927 42.633282 53.940325 -96.441601 -1.788841 2.716587 -12.498040 -11.055897 24.804681 -173.620963 72.826096 7.947817 -32.668490 -56.307716 2.370960 -139.347907 -3.895362 -4.107477 -17.331757 7.949692 -11.074345 
-121.533412 0.000000 -206.791392 180.000000 -77.104149 180.000000 -14.755772 82.647557 1.894059 69.381688 -0.666163 -179.259590 121.020405 7.203802 -176.966945 -80.343833 -1.415396 -9.447143 80.284771 5.519058 -4.941418 21.454557 0.003084 0.000001 -175.062008 17.735252 179.899586 -14.804112 3.815380 17.976158 69.689593 -7.199009 18.249263 21.454557 -0.003104 -0.000015 10.085600 -1.920806 1.149795 10.127709 -3.934815 2.128064 9.809040 -3.921757 2.151825 -32.235300 -6.741532 -1.653261 -13.502858 4.193749 -6.104174 174.444257 -78.742432 4.110709 41.885955 39.793643 53.872725 -95.860128 -2.111002 2.731314 -14.484369 -10.903535 25.131490 -170.513524 72.209669 11.138946 -31.628369 -56.981461 1.972296 -138.225119 -3.825364 -4.071989 -15.749874 8.449700 -11.068289 
-121.131434 0.000000 -203.179686 180.000000 -79.124577 180.000000 -14.068581 83.223190 1.066396 69.497659 -1.514600 -179.721318 120.420633 6.928502 -175.798305 -75.565517 -1.390563 -11.093086 81.799349 6.733069 -4.709478 21.454557 0.003086 0.000001 -171.737785 18.157809 -178.856987 -14.165055 3.946870 18.103454 67.524280 -7.743253 15.939474 21.454560 -0.003109 -0.000014 9.914538 -2.001031 1.138822 9.784775 -4.091117 2.105500 9.466032 -4.078182 2.130205 -33.734682 -7.823990 -1.817522 -11.854580 4.964797 -7.026252 172.544675 -78.518503 6.048703 39.965038 38.037780 52.368231 -94.804596 -2.095730 2.665209 -16.176195 -10.579785 25.732890 -169.062002 71.659002 12.631413 -28.858095 -57.304609 0.703598 -136.131202 -3.748702 -4.010406 -15.030453 8.534575 -11.141730 
-120.655430 0.000000 -199.509418 180.000000 -81.005967 180.000000 -13.498759 83.572856 0.465738 69.754455 -1.727461 179.596039 120.258739 6.163577 -174.648954 -70.930039 -1.040642 -13.240171 83.702415 8.332592 -4.209347 21.454554 0.003091 0.000001 -170.162360 17.703238 -178.657019 -17.420334 3.785124 16.978618 68.573886 -7.229914 15.271533 21.454562 -0.003112 -0.000015 9.757281 -1.948633 1.191068 9.468722 -3.988137 2.219916 9.150051 -3.974504 2.243985 -34.609877 -9.040287 -1.843488 -10.547334 6.096766 -7.967480 172.142119 -78.067003 6.471406 37.041270 37.227370 50.107794 -93.153423 -2.178552 2.585752 -17.164724 -10.246927 25.888587 -168.719194 71.207761 12.984148 -24.901170 -57.351886 -1.163754 -133.126371 -3.631152 -3.918168 -14.819730 8.270110 -11.539767 
-120.110461 0.000000 -195.780719 180.000000 -82.745648 180.000000 -13.062357 83.703751 0.048160 70.197085 -1.727974 178.876398 120.637464 5.372891 -173.591594 -66.538971 -0.613154 -15.339075 85.679442 9.872314 -3.739290 21.454553 0.003096 0.000000 -170.002384 16.721688 -179.273669 -23.889606 3.199089 14.894959 70.750404 -6.169587 14.622977 21.454562 -0.003110 -0.000016 9.654248 -1.857086 1.242706 9.261889 -3.807640 2.333995 8.943322 -3.793324 2.356962 -35.078816 -10.091126 -1.841001 -9.585851 7.264170 -8.793081 172.242931 -77.519022 6.384829 33.123210 37.234188 47.662541 -90.781833 -2.797107 2.535488 -17.052858 -10.084251 24.891716 -169.025994 70.859118 12.668032 -20.323205 -57.210202 -3.334500 -129.267913 -3.440086 -3.785775 -14.756431 7.721733 -12.497070 
-119.501587 0.000000 -191.993717 180.000000 -84.343027 180.000000 -12.755373 83.630602 -0.228964 70.876226 -1.880824 178.301479 121.649193 4.948992 -172.716148 -62.447218 -0.367897 -16.792239 87.164979 10.868273 -3.695105 21.454552 0.003098 -0.000001 -170.856073 15.495468 179.529147 -32.796078 2.132873 12.292815 72.376138 -4.995555 12.892723 21.454557 -0.003104 -0.000016 9.634911 -1.808815 1.230988 9.224232 -3.709941 2.314997 8.905699 -3.695759 2.337376 -35.341337 -10.717065 -1.899007 -8.936866 8.190477 -9.393628 172.307068 -76.994802 6.334750 28.195149 37.928837 45.373047 -87.645206 -4.218897 2.505308 -15.678911 -10.165294 22.391798 -169.581020 70.611732 12.096130 -15.652685 -57.016367 -5.583906 -124.598391 -3.125084 -3.612772 -14.500552 6.980723 -14.022054 
-118.833871 0.000000 -188.148543 180.000000 -85.799244 180.000000 -12.514393 83.398262 -0.403062 71.734208 -2.329892 178.064115 123.277892 5.010795 -172.167800 -58.611321 -0.353943 -16.650519 86.699196 10.588344 -4.702467 21.454553 0.003097 -0.000001 -172.163333 14.270792 177.823702 -42.954075 1.288173 9.893392 73.447400 -3.803840 11.119691 21.454553 -0.003101 -0.000017 9.685918 -1.840686 1.095232 9.330457 -3.763622 2.039481 9.011837 -3.751110 2.062196 -35.540076 -10.805983 -2.030191 -8.461017 8.809668 -9.714541 173.227161 -76.600819 5.407725 22.312509 39.006212 42.860607 -84.032732 -6.018860 2.463173 -13.844688 -10.340538 19.478994 -170.011959 70.482386 11.651924 -11.323350 -57.002465 -7.918092 -119.107597 -2.552666 -3.446267 -13.841448 6.228225 -15.220540 
